<?xml version="1.0" encoding="UTF-8" standalone="no"?>
<svg
   width="59"
   height="45.046398"
   viewBox="0 0 15.610416 11.918526"
   version="1.1"
   id="svg8"
   sodipodi:docname="Bird1.svg"
   inkscape:version="1.2.1 (9c6d41e410, 2022-07-14)"
   xmlns:inkscape="http://www.inkscape.org/namespaces/inkscape"
   xmlns:sodipodi="http://sodipodi.sourceforge.net/DTD/sodipodi-0.dtd"
   xmlns="http://www.w3.org/2000/svg"
   xmlns:svg="http://www.w3.org/2000/svg">
  <sodipodi:namedview
     id="namedview43"
     pagecolor="#ffffff"
     bordercolor="#000000"
     borderopacity="0.25"
     inkscape:showpageshadow="2"
     inkscape:pageopacity="0.0"
     inkscape:pagecheckerboard="0"
     inkscape:deskcolor="#d1d1d1"
     showgrid="false"
     inkscape:zoom="1"
     inkscape:cx="913"
     inkscape:cy="225"
     inkscape:window-width="2560"
     inkscape:window-height="1377"
     inkscape:window-x="2552"
     inkscape:window-y="-8"
     inkscape:window-maximized="1"
     inkscape:current-layer="svg8" />
  <defs
     id="defs2" />
  <metadata
     id="metadata5" />
  <g
     id="g400"
     transform="matrix(-0.02000258,0,0,0.02000258,15.696789,-2.3861982)">
    <path
       id="path864"
       d="m 283.31209,507.21256 c -34.50544,126.5199 -44.23771,126.5199 -11.50178,137.13697 32.73591,10.61708 38.92919,16.81034 -2.65427,15.92559 -41.58349,-0.88475 -28.31216,-7.07806 -61.04808,7.96277 -32.73593,15.04082 -53.08529,14.15608 -25.65786,-5.30851 27.42736,-19.4646 12.38652,-3.53901 -17.69509,-11.50183 -30.08168,-7.96277 -2.6543,-9.73227 27.42736,-14.15604 30.08168,-4.4238 30.08168,23.00361 69.8956,-125.63519 39.814,-148.63875 21.23412,-4.42376 21.23412,-4.42376 z"
       style="fill:#a66441;fill-opacity:1;fill-rule:nonzero;stroke:none;stroke-width:1.65517;stroke-linecap:round;stroke-linejoin:round;stroke-miterlimit:4;stroke-dasharray:none;stroke-dashoffset:0;stroke-opacity:1;paint-order:normal" />
    <path
       id="path866"
       d="m 269.62336,509.28134 c -13.60715,66.52381 -27.97037,114.90466 -40.4436,129.26778 -10.74446,12.37242 -41.33749,27.54059 -59.43814,38.26772 1.45217,4.16663 17.35799,1.07357 38.36612,-8.5788 32.73594,-15.04084 19.465,-8.84758 61.04848,-7.96282 41.58347,0.88474 35.39,-5.30857 2.65411,-15.92564 -32.08163,-10.40487 -23.3717,-10.63101 9.46661,-129.71922 z"
       style="fill:#985b3b;fill-opacity:1;fill-rule:nonzero;stroke:none;stroke-width:1;stroke-linecap:round;stroke-linejoin:round;stroke-miterlimit:4;stroke-dasharray:none;stroke-dashoffset:0;stroke-opacity:1;paint-order:normal" />
    <path
       style="fill:#a66441;fill-opacity:1;fill-rule:nonzero;stroke:none;stroke-width:1.65517;stroke-linecap:round;stroke-linejoin:round;stroke-miterlimit:4;stroke-dasharray:none;stroke-dashoffset:0;stroke-opacity:1;paint-order:normal"
       d="m 412.07576,543.72891 c -34.50544,126.5199 -44.23771,126.5199 -11.50178,137.13697 32.73591,10.61708 38.92919,16.81034 -2.65427,15.92559 -41.58349,-0.88475 -28.31216,-7.07806 -61.04808,7.96277 -32.73593,15.04082 -53.08529,14.15608 -25.65786,-5.30851 27.42736,-19.4646 12.38652,-3.53901 -17.69509,-11.50183 -30.08168,-7.96277 -2.6543,-9.73227 27.42736,-14.15604 30.08168,-4.4238 30.08168,23.00361 69.8956,-125.63519 39.814,-148.63875 21.23412,-4.42376 21.23412,-4.42376 z"
       id="path918" />
    <path
       style="fill:#985b3b;fill-opacity:1;fill-rule:nonzero;stroke:none;stroke-width:1;stroke-linecap:round;stroke-linejoin:round;stroke-miterlimit:4;stroke-dasharray:none;stroke-dashoffset:0;stroke-opacity:1;paint-order:normal"
       d="m 398.38704,545.79768 c -13.60715,66.52382 -27.97038,114.90468 -40.4436,129.2678 -10.74447,12.37241 -41.3375,27.54058 -59.43815,38.26771 1.45217,4.16664 17.35799,1.07358 38.36612,-8.57879 32.73594,-15.04085 19.465,-8.84759 61.04848,-7.96282 41.58347,0.88474 35.39,-5.30858 2.65411,-15.92564 -32.08163,-10.40488 -23.3717,-10.63102 9.46661,-129.71923 z"
       id="path859" />
    <path
       style="fill:#9b5936;fill-opacity:1;fill-rule:nonzero;stroke:none;stroke-width:1.65517;stroke-linecap:round;stroke-linejoin:round;stroke-miterlimit:4;stroke-dasharray:none;stroke-dashoffset:0;stroke-opacity:1;paint-order:normal"
       d="M 495.7465,346.00898 C 715.96333,145.81187 772.26876,114.53107 783.52984,120.78722 794.79093,127.04338 727.22442,305.96956 585.8352,433.59522 444.44596,561.2209 495.7465,346.00898 495.7465,346.00898 Z"
       id="path832" />
    <path
       style="fill:#a66441;fill-opacity:1;fill-rule:nonzero;stroke:none;stroke-width:1;stroke-linecap:round;stroke-linejoin:round;stroke-miterlimit:4;stroke-dasharray:none;stroke-dashoffset:0;stroke-opacity:1;paint-order:normal"
       d="m 780.44486,120.07019 c -16.9046,-0.30493 -79.96555,39.81791 -284.69838,225.93866 0,0 -6.26473,26.28696 -8.38139,55.03799 l 1.20353,16.38763 c 0,0 205.18181,-148.94221 294.79957,-296.73021 -0.76716,-0.38779 -1.72921,-0.61253 -2.92333,-0.63407 z"
       id="path870" />
    <path
       style="fill:#e4b378;fill-opacity:1;fill-rule:nonzero;stroke:none;stroke-width:1.65517;stroke-linecap:round;stroke-linejoin:round;stroke-miterlimit:4;stroke-dasharray:none;stroke-dashoffset:0;stroke-opacity:1;paint-order:normal"
       d="M 83.64769,329.31914 C 91.116609,509.13177 246.97364,614.58585 393.884,579.49634 514.83023,550.60834 624.43562,461.4507 545.21387,365.60488 471.39119,276.29105 366.93997,138.51615 243.73617,121.68385 92.409432,101.00933 79.03378,218.24025 83.64769,329.31914 Z"
       id="path826" />
    <path
       style="fill:#ecc290;fill-opacity:1;fill-rule:nonzero;stroke:none;stroke-width:1.81985;stroke-linecap:round;stroke-linejoin:round;stroke-miterlimit:4;stroke-dasharray:none;stroke-dashoffset:0;stroke-opacity:1;paint-order:normal"
       d="M 210.73752,119.29452 C 90.429087,119.28894 79.394157,226.91806 83.647607,329.31891 c 0.130985,3.15343 0.309306,6.28332 0.530717,9.39064 38.420116,157.4355 189.275826,244.31667 332.415356,210.19233 51.14864,-12.19377 100.45194,-34.16493 136.83093,-62.57084 24.83348,-35.60006 27.53299,-77.48153 -8.21087,-120.72596 -73.82269,-89.31383 -178.27391,-227.08874 -301.47772,-243.92104 -11.8224,-1.61519 -22.80287,-2.38904 -32.9985,-2.38952 z"
       id="path854" />
    <path
       style="fill:#a66441;fill-opacity:1;fill-rule:nonzero;stroke:none;stroke-width:1.65517;stroke-linecap:round;stroke-linejoin:round;stroke-miterlimit:4;stroke-dasharray:none;stroke-dashoffset:0;stroke-opacity:1;paint-order:normal"
       d="m 210.73732,119.29492 c 10.19565,4.6e-4 21.17643,0.77374 32.99882,2.38894 C 362.31,137.88361 463.50022,266.0875 536.74805,355.32015 454.39799,385.53271 249.44089,451.84416 230.4853,371.03351 207.05385,271.14145 177.5026,245.38913 91.599556,212.32278 105.22989,158.60804 138.0238,119.29154 210.73732,119.29492 Z"
       id="path836" />
    <path
       style="fill:#8b4a34;fill-opacity:1;fill-rule:nonzero;stroke:none;stroke-width:1.9724;stroke-linecap:round;stroke-linejoin:round;stroke-miterlimit:4;stroke-dasharray:none;stroke-dashoffset:0;stroke-opacity:1;paint-order:normal"
       d="m 222.32821,316.47499 c -14.06672,52.4977 40.30532,124.59071 112.18958,140.85549 117.48564,26.58272 324.53861,5.79873 324.53861,5.79873 0,0 -128.58576,-169.327 -282.35713,-207.17079 -71.56596,-17.6127 -140.30434,8.01887 -154.37106,60.51657 z"
       id="path829" />
    <circle
       style="fill:#ffffff;fill-opacity:1;fill-rule:nonzero;stroke:none;stroke-width:1.43236;stroke-linecap:round;stroke-linejoin:round;stroke-miterlimit:4;stroke-dasharray:none;stroke-dashoffset:0;stroke-opacity:1;paint-order:normal"
       id="path838"
       cx="-186.69221"
       cy="202.11729"
       r="28.152719"
       transform="scale(-1,1)" />
    <path
       style="fill:#d29c70;fill-opacity:1;fill-rule:nonzero;stroke:none;stroke-width:1.65517;stroke-linecap:round;stroke-linejoin:round;stroke-miterlimit:4;stroke-dasharray:none;stroke-dashoffset:0;stroke-opacity:1;paint-order:normal"
       d="m 47.081363,184.23061 c -3.262167,0.0205 -6.392262,0.13488 -9.285737,0.36949 -23.142821,1.87644 -33.1528826,5.00347 -33.469792,9.0687 71.665726,8.93673 112.297536,29.71963 112.297536,29.71963 -5.14372,-25.80207 -17.395319,-34.8449 -17.395319,-34.8449 0,0 -29.311514,-4.45623 -52.146688,-4.31292 z"
       id="path834" />
    <circle
       r="21.270947"
       cy="202.11729"
       cx="-186.69221"
       id="circle853"
       style="fill:#30150b;fill-opacity:1;fill-rule:nonzero;stroke:none;stroke-width:1.08223;stroke-linecap:round;stroke-linejoin:round;stroke-miterlimit:4;stroke-dasharray:none;stroke-dashoffset:0;stroke-opacity:1;paint-order:normal"
       transform="scale(-1,1)" />
    <circle
       r="8.445816"
       cy="187.08031"
       cx="-176.33162"
       id="circle855"
       style="fill:#ffffff;fill-opacity:1;fill-rule:nonzero;stroke:none;stroke-width:0.429708;stroke-linecap:round;stroke-linejoin:round;stroke-miterlimit:4;stroke-dasharray:none;stroke-dashoffset:0;stroke-opacity:1;paint-order:normal"
       transform="scale(-1,1)" />
    <path
       style="opacity:0.274;fill:#ecc290;fill-opacity:1;fill-rule:nonzero;stroke:none;stroke-width:1.46394;stroke-linecap:round;stroke-linejoin:round;stroke-miterlimit:4;stroke-dasharray:none;stroke-dashoffset:0;stroke-opacity:1;paint-order:normal"
       d="m 604.89203,366.02124 c -1.44913,3.02968 3.00283,10.26121 9.21116,13.23071 6.20835,2.9695 11.37401,1.48924 13.27117,-2.47722 1.89718,-3.96642 -0.19256,-8.917 -6.4009,-11.88649 -6.2083,-2.9695 -14.63232,-1.89665 -16.08143,1.133 z"
       id="path857" />
    <path
       style="opacity:0.274;fill:#ecc290;fill-opacity:1;fill-rule:nonzero;stroke:none;stroke-width:1.46394;stroke-linecap:round;stroke-linejoin:round;stroke-miterlimit:4;stroke-dasharray:none;stroke-dashoffset:0;stroke-opacity:1;paint-order:normal"
       d="m 626.7886,340.37096 c -1.44914,3.02968 3.00283,10.26121 9.21115,13.23072 6.20836,2.96951 11.37402,1.48924 13.27118,-2.47723 1.89718,-3.96642 -0.19256,-8.91699 -6.4009,-11.88649 -6.20831,-2.96949 -14.63233,-1.89664 -16.08143,1.133 z"
       id="path874" />
    <path
       id="path876"
       d="m 647.43392,315.97195 c -1.44914,3.02968 3.00283,10.2612 9.21115,13.2307 6.20836,2.96951 11.37402,1.48924 13.27118,-2.47722 1.89718,-3.96641 -0.19256,-8.91698 -6.4009,-11.88648 -6.20831,-2.9695 -14.63233,-1.89665 -16.08143,1.133 z"
       style="opacity:0.274;fill:#ecc290;fill-opacity:1;fill-rule:nonzero;stroke:none;stroke-width:1.46394;stroke-linecap:round;stroke-linejoin:round;stroke-miterlimit:4;stroke-dasharray:none;stroke-dashoffset:0;stroke-opacity:1;paint-order:normal" />
    <path
       style="opacity:0.274;fill:#ecc290;fill-opacity:1;fill-rule:nonzero;stroke:none;stroke-width:1.46394;stroke-linecap:round;stroke-linejoin:round;stroke-miterlimit:4;stroke-dasharray:none;stroke-dashoffset:0;stroke-opacity:1;paint-order:normal"
       d="m 664.32556,287.81924 c -1.44914,3.02968 3.00283,10.26122 9.21115,13.23071 6.20835,2.96951 11.37402,1.48924 13.27118,-2.47721 1.89717,-3.96643 -0.19257,-8.917 -6.4009,-11.8865 -6.20831,-2.96949 -14.63233,-1.89664 -16.08143,1.133 z"
       id="path878" />
    <path
       id="path880"
       d="m 681.21719,264.04583 c -1.44913,3.02968 3.00283,10.26121 9.21116,13.23071 6.20835,2.96951 11.37401,1.48924 13.27117,-2.47722 1.89718,-3.96642 -0.19256,-8.917 -6.4009,-11.88649 -6.2083,-2.9695 -14.63232,-1.89665 -16.08143,1.133 z"
       style="opacity:0.274;fill:#ecc290;fill-opacity:1;fill-rule:nonzero;stroke:none;stroke-width:1.46394;stroke-linecap:round;stroke-linejoin:round;stroke-miterlimit:4;stroke-dasharray:none;stroke-dashoffset:0;stroke-opacity:1;paint-order:normal" />
    <path
       id="path884"
       d="m 697.48322,237.14433 c -1.44913,3.02968 3.00283,10.26122 9.21116,13.23071 6.20835,2.96951 11.37402,1.48924 13.27117,-2.47721 1.89718,-3.96643 -0.19256,-8.917 -6.4009,-11.8865 -6.2083,-2.96949 -14.63232,-1.89664 -16.08143,1.133 z"
       style="opacity:0.274;fill:#ecc290;fill-opacity:1;fill-rule:nonzero;stroke:none;stroke-width:1.46394;stroke-linecap:round;stroke-linejoin:round;stroke-miterlimit:4;stroke-dasharray:none;stroke-dashoffset:0;stroke-opacity:1;paint-order:normal" />
    <path
       style="opacity:0.274;fill:#ecc290;fill-opacity:1;fill-rule:nonzero;stroke:none;stroke-width:1.46394;stroke-linecap:round;stroke-linejoin:round;stroke-miterlimit:4;stroke-dasharray:none;stroke-dashoffset:0;stroke-opacity:1;paint-order:normal"
       d="m 711.87239,211.49408 c -1.44914,3.02968 3.00283,10.26122 9.21115,13.23071 6.20836,2.96951 11.37402,1.48924 13.27118,-2.47721 1.89717,-3.96643 -0.19256,-8.917 -6.4009,-11.8865 -6.20831,-2.96949 -14.63233,-1.89664 -16.08143,1.133 z"
       id="path886" />
    <path
       id="path888"
       d="m 726.86875,184.00381 c -1.44914,3.02968 3.00283,10.26121 9.21116,13.23071 6.20835,2.96951 11.37401,1.48924 13.27117,-2.47722 1.89718,-3.96642 -0.19256,-8.91699 -6.4009,-11.88649 -6.2083,-2.96949 -14.63232,-1.89664 -16.08143,1.133 z"
       style="opacity:0.274;fill:#ecc290;fill-opacity:1;fill-rule:nonzero;stroke:none;stroke-width:1.46394;stroke-linecap:round;stroke-linejoin:round;stroke-miterlimit:4;stroke-dasharray:none;stroke-dashoffset:0;stroke-opacity:1;paint-order:normal" />
    <path
       style="opacity:0.274;fill:#ecc290;fill-opacity:1;fill-rule:nonzero;stroke:none;stroke-width:1.46394;stroke-linecap:round;stroke-linejoin:round;stroke-miterlimit:4;stroke-dasharray:none;stroke-dashoffset:0;stroke-opacity:1;paint-order:normal"
       d="m 739.35806,161.2829 c -0.61889,3.30091 5.54728,9.13987 12.31137,10.40803 6.76413,1.26818 11.37339,-1.49408 12.18358,-5.8156 0.81021,-4.32151 -2.48544,-8.56579 -9.24953,-9.83395 -6.76408,-1.26816 -14.62657,1.94068 -15.24542,5.24152 z"
       id="path890" />
    <path
       id="path892"
       d="m 753.22541,146.65756 c 0.55733,2.33371 6.28023,4.34771 11.06237,3.20563 4.78216,-1.14209 6.98498,-4.28624 6.25529,-7.34149 -0.72968,-3.05527 -4.11553,-4.86465 -8.89766,-3.72257 -4.78214,1.14209 -8.97734,5.52479 -8.42,7.85843 z"
       style="opacity:0.274;fill:#ecc290;fill-opacity:1;fill-rule:nonzero;stroke:none;stroke-width:1.04588;stroke-linecap:round;stroke-linejoin:round;stroke-miterlimit:4;stroke-dasharray:none;stroke-dashoffset:0;stroke-opacity:1;paint-order:normal" />
    <path
       id="path894"
       d="m 331.86795,408.23242 c -4.94811,2.7211 -5.94721,16.96498 -0.37118,27.10446 5.57607,10.13953 14.08576,13.17637 20.56374,9.61385 6.47802,-3.56245 8.47123,-12.37517 2.89516,-22.51467 -5.57599,-10.13946 -18.1397,-16.92473 -23.08772,-14.20364 z"
       style="fill:#a66441;fill-opacity:1;fill-rule:nonzero;stroke:none;stroke-width:2.46153;stroke-linecap:round;stroke-linejoin:round;stroke-miterlimit:4;stroke-dasharray:none;stroke-dashoffset:0;stroke-opacity:1;paint-order:normal" />
    <path
       style="fill:#a66441;fill-opacity:1;fill-rule:nonzero;stroke:none;stroke-width:1.60444;stroke-linecap:round;stroke-linejoin:round;stroke-miterlimit:4;stroke-dasharray:none;stroke-dashoffset:0;stroke-opacity:1;paint-order:normal"
       d="m 349.00322,381.47962 c -3.22522,1.77364 -3.87643,11.05791 -0.24193,17.6669 3.63453,6.60903 9.18121,8.58847 13.4036,6.26639 4.22243,-2.32204 5.52161,-8.06624 1.8871,-14.67524 -3.63448,-6.60899 -11.82361,-11.03168 -15.04877,-9.25805 z"
       id="path896" />
    <path
       style="fill:#a66441;fill-opacity:1;fill-rule:nonzero;stroke:none;stroke-width:2.46153;stroke-linecap:round;stroke-linejoin:round;stroke-miterlimit:4;stroke-dasharray:none;stroke-dashoffset:0;stroke-opacity:1;paint-order:normal"
       d="m 377.87518,412.65619 c -4.9481,2.7211 -5.9472,16.96498 -0.37117,27.10446 5.57607,10.13953 14.08576,13.17637 20.56374,9.61385 6.47802,-3.56245 8.47123,-12.37517 2.89516,-22.51467 -5.57599,-10.13946 -18.1397,-16.92473 -23.08773,-14.20364 z"
       id="path898" />
    <path
       id="path900"
       d="m 395.01046,385.9034 c -3.22522,1.77363 -3.87643,11.0579 -0.24193,17.6669 3.63452,6.60902 9.18121,8.58846 13.4036,6.26638 4.22243,-2.32204 5.52161,-8.06624 1.8871,-14.67524 -3.63448,-6.60899 -11.82361,-11.03167 -15.04877,-9.25804 z"
       style="fill:#a66441;fill-opacity:1;fill-rule:nonzero;stroke:none;stroke-width:1.60444;stroke-linecap:round;stroke-linejoin:round;stroke-miterlimit:4;stroke-dasharray:none;stroke-dashoffset:0;stroke-opacity:1;paint-order:normal" />
    <path
       id="path902"
       d="m 425.65194,417.07996 c -4.94811,2.72111 -5.94721,16.96498 -0.37118,27.10447 5.57607,10.13952 14.08576,13.17637 20.56374,9.61385 6.47802,-3.56246 8.47123,-12.37518 2.89516,-22.51467 -5.57599,-10.13947 -18.1397,-16.92473 -23.08772,-14.20365 z"
       style="fill:#a66441;fill-opacity:1;fill-rule:nonzero;stroke:none;stroke-width:2.46153;stroke-linecap:round;stroke-linejoin:round;stroke-miterlimit:4;stroke-dasharray:none;stroke-dashoffset:0;stroke-opacity:1;paint-order:normal" />
    <path
       style="fill:#a66441;fill-opacity:1;fill-rule:nonzero;stroke:none;stroke-width:1.60444;stroke-linecap:round;stroke-linejoin:round;stroke-miterlimit:4;stroke-dasharray:none;stroke-dashoffset:0;stroke-opacity:1;paint-order:normal"
       d="m 446.54092,390.95279 c -3.22522,1.77363 -3.87644,11.0579 -0.24194,17.66689 3.63453,6.60903 9.18121,8.58847 13.40361,6.26639 4.22243,-2.32204 5.5216,-8.06624 1.88709,-14.67524 -3.63448,-6.60899 -11.82361,-11.03168 -15.04876,-9.25804 z"
       id="path904" />
    <path
       style="fill:#a66441;fill-opacity:1;fill-rule:nonzero;stroke:none;stroke-width:2.46153;stroke-linecap:round;stroke-linejoin:round;stroke-miterlimit:4;stroke-dasharray:none;stroke-dashoffset:0;stroke-opacity:1;paint-order:normal"
       d="m 474.78725,420.1007 c -4.9481,2.72111 -5.9472,16.96499 -0.37117,27.10447 5.57606,10.13952 14.08576,13.17637 20.56374,9.61385 6.47802,-3.56246 8.47122,-12.37518 2.89516,-22.51467 -5.57599,-10.13947 -18.1397,-16.92473 -23.08773,-14.20365 z"
       id="path906" />
    <path
       id="path908"
       d="m 498.17869,392.72229 c -3.22522,1.77364 -3.87643,11.05791 -0.24194,17.6669 3.63453,6.60903 9.18121,8.58847 13.40361,6.26639 4.22243,-2.32204 5.52161,-8.06624 1.8871,-14.67524 -3.63448,-6.60899 -11.82362,-11.03168 -15.04877,-9.25805 z"
       style="fill:#a66441;fill-opacity:1;fill-rule:nonzero;stroke:none;stroke-width:1.60444;stroke-linecap:round;stroke-linejoin:round;stroke-miterlimit:4;stroke-dasharray:none;stroke-dashoffset:0;stroke-opacity:1;paint-order:normal" />
    <path
       id="path910"
       d="m 522.62351,422.42429 c -4.37264,3.57327 -2.77222,17.76217 4.55004,26.72241 7.32228,8.96027 16.24158,10.40364 21.96615,5.72548 5.72461,-4.67809 6.0867,-13.70615 -1.23559,-22.6664 -7.3222,-8.96022 -20.90805,-13.35473 -25.2806,-9.78149 z"
       style="fill:#a66441;fill-opacity:1;fill-rule:nonzero;stroke:none;stroke-width:2.46153;stroke-linecap:round;stroke-linejoin:round;stroke-miterlimit:4;stroke-dasharray:none;stroke-dashoffset:0;stroke-opacity:1;paint-order:normal" />
    <path
       style="fill:#a66441;fill-opacity:1;fill-rule:nonzero;stroke:none;stroke-width:1.60444;stroke-linecap:round;stroke-linejoin:round;stroke-miterlimit:4;stroke-dasharray:none;stroke-dashoffset:0;stroke-opacity:1;paint-order:normal"
       d="m 547.9841,394.59914 c -3.22522,1.77363 -3.87643,11.05791 -0.24193,17.6669 3.63453,6.60903 9.18121,8.58847 13.40361,6.26639 4.22242,-2.32204 5.5216,-8.06624 1.88709,-14.67525 -3.63448,-6.60899 -11.82361,-11.03167 -15.04877,-9.25804 z"
       id="path912" />
    <path
       style="fill:#a66441;fill-opacity:1;fill-rule:nonzero;stroke:none;stroke-width:2.46153;stroke-linecap:round;stroke-linejoin:round;stroke-miterlimit:4;stroke-dasharray:none;stroke-dashoffset:0;stroke-opacity:1;paint-order:normal"
       d="m 572.82868,423.70306 c -4.2742,3.69045 -2.28988,17.83077 5.27249,26.5893 7.5624,8.75856 16.51755,9.95971 22.11324,5.12815 5.59575,-4.83151 5.71305,-13.86606 -1.84934,-22.6246 -7.56233,-8.75852 -21.26227,-12.78326 -25.53639,-9.09285 z"
       id="path914" />
    <path
       style="fill:#cc905e;fill-opacity:1;fill-rule:nonzero;stroke:none;stroke-width:1;stroke-linecap:round;stroke-linejoin:round;stroke-miterlimit:4;stroke-dasharray:none;stroke-dashoffset:0;stroke-opacity:1;paint-order:normal"
       d="m 4.325834,193.6688 c -0.3170457,4.06697 9.067388,9.07277 24.711152,14.70452 31.280817,11.2611 57.847115,30.72784 57.847115,30.72784 9.80018,-3.34042 21.678289,-6.57499 29.739269,-15.71273 0,0 -40.63181,-20.7829 -112.297536,-29.71963 z"
       id="path847" />
    <path
       style="fill:#a66441;fill-opacity:1;fill-rule:nonzero;stroke:none;stroke-width:2.46153;stroke-linecap:round;stroke-linejoin:round;stroke-miterlimit:4;stroke-dasharray:none;stroke-dashoffset:0;stroke-opacity:1;paint-order:normal"
       d="m 331.86795,408.23242 c -4.94811,2.7211 -5.94721,16.96498 -0.37118,27.10446 5.57607,10.13953 14.08576,13.17637 20.56374,9.61385 6.47802,-3.56245 8.47123,-12.37517 2.89516,-22.51467 -5.57599,-10.13946 -18.1397,-16.92473 -23.08772,-14.20364 z"
       id="path856" />
  </g>
</svg>
