<?xml version="1.0" encoding="UTF-8" standalone="no"?>
<svg
   width="59"
   height="45.046398"
   viewBox="0 0 15.610416 11.918526"
   version="1.1"
   id="svg8"
   sodipodi:docname="Bird2.svg"
   inkscape:version="1.2.1 (9c6d41e410, 2022-07-14)"
   xmlns:inkscape="http://www.inkscape.org/namespaces/inkscape"
   xmlns:sodipodi="http://sodipodi.sourceforge.net/DTD/sodipodi-0.dtd"
   xmlns="http://www.w3.org/2000/svg"
   xmlns:svg="http://www.w3.org/2000/svg">
  <sodipodi:namedview
     id="namedview43"
     pagecolor="#ffffff"
     bordercolor="#000000"
     borderopacity="0.25"
     inkscape:showpageshadow="2"
     inkscape:pageopacity="0.0"
     inkscape:pagecheckerboard="0"
     inkscape:deskcolor="#d1d1d1"
     showgrid="false"
     inkscape:zoom="0.34233333"
     inkscape:cx="1390.4577"
     inkscape:cy="1057.4489"
     inkscape:window-width="2560"
     inkscape:window-height="1377"
     inkscape:window-x="2552"
     inkscape:window-y="-8"
     inkscape:window-maximized="1"
     inkscape:current-layer="svg8" />
  <defs
     id="defs2" />
  <metadata
     id="metadata5" />
  <g
     id="g203"
     transform="scale(0.02000258)">
    <path
       id="path864"
       d="m 501.42613,387.91804 c 34.50544,126.5199 44.23771,126.5199 11.50178,137.13697 -32.73591,10.61708 -38.92919,16.81034 2.65427,15.92559 41.58349,-0.88475 28.31216,-7.07806 61.04808,7.96277 32.73593,15.04082 53.08529,14.15608 25.65786,-5.30851 -27.42736,-19.4646 -12.38652,-3.53901 17.69509,-11.50183 30.08168,-7.96277 2.6543,-9.73227 -27.42736,-14.15604 -30.08168,-4.4238 -30.08168,23.00361 -69.8956,-125.63519 -39.814,-148.63875 -21.23412,-4.42376 -21.23412,-4.42376 z"
       style="fill:#a66441;fill-opacity:1;fill-rule:nonzero;stroke:none;stroke-width:1.65517;stroke-linecap:round;stroke-linejoin:round;stroke-miterlimit:4;stroke-dasharray:none;stroke-dashoffset:0;stroke-opacity:1;paint-order:normal" />
    <path
       id="path866"
       d="m 515.11486,389.98682 c 13.60715,66.52381 27.97037,114.90466 40.4436,129.26778 10.74446,12.37242 41.33749,27.54059 59.43814,38.26772 -1.45217,4.16663 -17.35799,1.07357 -38.36612,-8.5788 -32.73594,-15.04084 -19.465,-8.84758 -61.04848,-7.96282 -41.58347,0.88474 -35.39,-5.30857 -2.65411,-15.92564 32.08163,-10.40487 23.3717,-10.63101 -9.46661,-129.71922 z"
       style="fill:#985b3b;fill-opacity:1;fill-rule:nonzero;stroke:none;stroke-width:1;stroke-linecap:round;stroke-linejoin:round;stroke-miterlimit:4;stroke-dasharray:none;stroke-dashoffset:0;stroke-opacity:1;paint-order:normal" />
    <path
       style="fill:#a66441;fill-opacity:1;fill-rule:nonzero;stroke:none;stroke-width:1.65517;stroke-linecap:round;stroke-linejoin:round;stroke-miterlimit:4;stroke-dasharray:none;stroke-dashoffset:0;stroke-opacity:1;paint-order:normal"
       d="m 372.66246,424.43439 c 34.50544,126.5199 44.23771,126.5199 11.50178,137.13697 -32.73591,10.61708 -38.92919,16.81034 2.65427,15.92559 41.58349,-0.88475 28.31216,-7.07806 61.04808,7.96277 32.73593,15.04082 53.08529,14.15608 25.65786,-5.30851 -27.42736,-19.4646 -12.38652,-3.53901 17.69509,-11.50183 30.08168,-7.96277 2.6543,-9.73227 -27.42736,-14.15604 -30.08168,-4.4238 -30.08168,23.00361 -69.8956,-125.63519 -39.814,-148.63875 -21.23412,-4.42376 -21.23412,-4.42376 z"
       id="path918" />
    <path
       style="fill:#985b3b;fill-opacity:1;fill-rule:nonzero;stroke:none;stroke-width:1;stroke-linecap:round;stroke-linejoin:round;stroke-miterlimit:4;stroke-dasharray:none;stroke-dashoffset:0;stroke-opacity:1;paint-order:normal"
       d="m 386.35118,426.50316 c 13.60715,66.52382 27.97038,114.90468 40.4436,129.2678 10.74447,12.37241 41.3375,27.54058 59.43815,38.26771 -1.45217,4.16664 -17.35799,1.07358 -38.36612,-8.57879 -32.73594,-15.04085 -19.465,-8.84759 -61.04848,-7.96282 -41.58347,0.88474 -35.39,-5.30858 -2.65411,-15.92564 32.08163,-10.40488 23.3717,-10.63102 -9.46661,-129.71923 z"
       id="path859" />
    <path
       style="fill:#9b5936;fill-opacity:1;fill-rule:nonzero;stroke:none;stroke-width:1.65517;stroke-linecap:round;stroke-linejoin:round;stroke-miterlimit:4;stroke-dasharray:none;stroke-dashoffset:0;stroke-opacity:1;paint-order:normal"
       d="M 288.99172,226.71446 C 68.77489,26.51735 12.46946,-4.76345 1.20838,1.4927 c -11.26109,6.25616 56.30542,185.18234 197.69464,312.808 141.38924,127.62568 90.0887,-87.58624 90.0887,-87.58624 z"
       id="path832" />
    <path
       style="fill:#a66441;fill-opacity:1;fill-rule:nonzero;stroke:none;stroke-width:1;stroke-linecap:round;stroke-linejoin:round;stroke-miterlimit:4;stroke-dasharray:none;stroke-dashoffset:0;stroke-opacity:1;paint-order:normal"
       d="m 4.29336,0.77567 c 16.9046,-0.30493 79.96555,39.81791 284.69838,225.93866 0,0 6.26473,26.28696 8.38139,55.03799 l -1.20353,16.38763 c 0,0 -205.18181,-148.94221 -294.79957,-296.73021 C 2.13719,1.02195 3.09924,0.79721 4.29336,0.77567 Z"
       id="path870" />
    <path
       style="fill:#e4b378;fill-opacity:1;fill-rule:nonzero;stroke:none;stroke-width:1.65517;stroke-linecap:round;stroke-linejoin:round;stroke-miterlimit:4;stroke-dasharray:none;stroke-dashoffset:0;stroke-opacity:1;paint-order:normal"
       d="M 701.09053,210.02462 C 693.62161,389.83725 537.76458,495.29133 390.85422,460.20182 269.90799,431.31382 160.3026,342.15618 239.52435,246.31036 313.34703,156.99653 417.79825,19.22163 541.00205,2.38933 692.32879,-18.28519 705.70444,98.94573 701.09053,210.02462 Z"
       id="path826" />
    <path
       style="fill:#ecc290;fill-opacity:1;fill-rule:nonzero;stroke:none;stroke-width:1.81985;stroke-linecap:round;stroke-linejoin:round;stroke-miterlimit:4;stroke-dasharray:none;stroke-dashoffset:0;stroke-opacity:1;paint-order:normal"
       d="m 574.0007,0 c 120.30843,-0.00558 131.34336,107.62354 127.08991,210.02439 -0.13098,3.15343 -0.3093,6.28332 -0.53071,9.39064 C 662.13978,376.85053 511.28407,463.7317 368.14454,429.60736 316.9959,417.41359 267.6926,395.44243 231.31361,367.03652 206.48013,331.43646 203.78062,289.55499 239.52448,246.31056 313.34717,156.99673 417.79839,19.22182 541.0022,2.38952 552.8246,0.77433 563.80507,4.8e-4 574.0007,0 Z"
       id="path854" />
    <path
       style="fill:#a66441;fill-opacity:1;fill-rule:nonzero;stroke:none;stroke-width:1.65517;stroke-linecap:round;stroke-linejoin:round;stroke-miterlimit:4;stroke-dasharray:none;stroke-dashoffset:0;stroke-opacity:1;paint-order:normal"
       d="M 574.0009,4e-4 C 563.80525,8.6e-4 552.82447,0.77414 541.00208,2.38934 422.42822,18.58909 321.238,146.79298 247.99017,236.02563 330.34023,266.23819 535.29733,332.54964 554.25292,251.73899 577.68437,151.84693 607.23562,126.09461 693.13866,93.02826 679.50833,39.31352 646.71442,-0.00298 574.0009,4e-4 Z"
       id="path836" />
    <circle
       style="fill:#ffffff;fill-opacity:1;fill-rule:nonzero;stroke:none;stroke-width:1.43236;stroke-linecap:round;stroke-linejoin:round;stroke-miterlimit:4;stroke-dasharray:none;stroke-dashoffset:0;stroke-opacity:1;paint-order:normal"
       id="path838"
       cx="598.04602"
       cy="82.822777"
       r="28.152719" />
    <path
       style="fill:#d29c70;fill-opacity:1;fill-rule:nonzero;stroke:none;stroke-width:1.65517;stroke-linecap:round;stroke-linejoin:round;stroke-miterlimit:4;stroke-dasharray:none;stroke-dashoffset:0;stroke-opacity:1;paint-order:normal"
       d="m 737.65686,64.93609 c 3.26216,0.0205 6.39226,0.13488 9.28573,0.36949 23.14282,1.87644 33.15289,5.00347 33.4698,9.0687 -71.66573,8.93673 -112.29754,29.71963 -112.29754,29.71963 5.14372,-25.80207 17.39532,-34.8449 17.39532,-34.8449 0,0 29.31151,-4.45623 52.14669,-4.31292 z"
       id="path834" />
    <circle
       r="21.270947"
       cy="82.822777"
       cx="598.04602"
       id="circle853"
       style="fill:#30150b;fill-opacity:1;fill-rule:nonzero;stroke:none;stroke-width:1.08223;stroke-linecap:round;stroke-linejoin:round;stroke-miterlimit:4;stroke-dasharray:none;stroke-dashoffset:0;stroke-opacity:1;paint-order:normal" />
    <circle
       r="8.445816"
       cy="67.785789"
       cx="608.40662"
       id="circle855"
       style="fill:#ffffff;fill-opacity:1;fill-rule:nonzero;stroke:none;stroke-width:0.429708;stroke-linecap:round;stroke-linejoin:round;stroke-miterlimit:4;stroke-dasharray:none;stroke-dashoffset:0;stroke-opacity:1;paint-order:normal" />
    <path
       style="opacity:0.274;fill:#ecc290;fill-opacity:1;fill-rule:nonzero;stroke:none;stroke-width:1.46394;stroke-linecap:round;stroke-linejoin:round;stroke-miterlimit:4;stroke-dasharray:none;stroke-dashoffset:0;stroke-opacity:1;paint-order:normal"
       d="m 179.84619,246.72672 c 1.44913,3.02968 -3.00283,10.26121 -9.21116,13.23071 -6.20835,2.9695 -11.37401,1.48924 -13.27117,-2.47722 -1.89718,-3.96642 0.19256,-8.917 6.4009,-11.88649 6.2083,-2.9695 14.63232,-1.89665 16.08143,1.133 z"
       id="path857" />
    <path
       style="opacity:0.274;fill:#ecc290;fill-opacity:1;fill-rule:nonzero;stroke:none;stroke-width:1.46394;stroke-linecap:round;stroke-linejoin:round;stroke-miterlimit:4;stroke-dasharray:none;stroke-dashoffset:0;stroke-opacity:1;paint-order:normal"
       d="m 157.94962,221.07644 c 1.44914,3.02968 -3.00283,10.26121 -9.21115,13.23072 -6.20836,2.96951 -11.37402,1.48924 -13.27118,-2.47723 -1.89718,-3.96642 0.19256,-8.91699 6.4009,-11.88649 6.20831,-2.96949 14.63233,-1.89664 16.08143,1.133 z"
       id="path874" />
    <path
       id="path876"
       d="m 137.3043,196.67743 c 1.44914,3.02968 -3.00283,10.2612 -9.21115,13.2307 -6.20836,2.96951 -11.37402,1.48924 -13.27118,-2.47722 -1.89718,-3.96641 0.19256,-8.91698 6.4009,-11.88648 6.20831,-2.9695 14.63233,-1.89665 16.08143,1.133 z"
       style="opacity:0.274;fill:#ecc290;fill-opacity:1;fill-rule:nonzero;stroke:none;stroke-width:1.46394;stroke-linecap:round;stroke-linejoin:round;stroke-miterlimit:4;stroke-dasharray:none;stroke-dashoffset:0;stroke-opacity:1;paint-order:normal" />
    <path
       style="opacity:0.274;fill:#ecc290;fill-opacity:1;fill-rule:nonzero;stroke:none;stroke-width:1.46394;stroke-linecap:round;stroke-linejoin:round;stroke-miterlimit:4;stroke-dasharray:none;stroke-dashoffset:0;stroke-opacity:1;paint-order:normal"
       d="m 120.41266,168.52472 c 1.44914,3.02968 -3.00283,10.26122 -9.21115,13.23071 -6.20835,2.96951 -11.37402,1.48924 -13.27118,-2.47721 -1.89717,-3.96643 0.19257,-8.917 6.4009,-11.8865 6.20831,-2.96949 14.63233,-1.89664 16.08143,1.133 z"
       id="path878" />
    <path
       id="path880"
       d="m 103.52103,144.75131 c 1.44913,3.02968 -3.00283,10.26121 -9.21116,13.23071 -6.20835,2.96951 -11.37401,1.48924 -13.27117,-2.47722 -1.89718,-3.96642 0.19256,-8.917 6.4009,-11.88649 6.2083,-2.9695 14.63232,-1.89665 16.08143,1.133 z"
       style="opacity:0.274;fill:#ecc290;fill-opacity:1;fill-rule:nonzero;stroke:none;stroke-width:1.46394;stroke-linecap:round;stroke-linejoin:round;stroke-miterlimit:4;stroke-dasharray:none;stroke-dashoffset:0;stroke-opacity:1;paint-order:normal" />
    <path
       id="path884"
       d="m 87.255,117.84981 c 1.44913,3.02968 -3.00283,10.26122 -9.21116,13.23071 -6.20835,2.96951 -11.37402,1.48924 -13.27117,-2.47721 -1.89718,-3.96643 0.19256,-8.917 6.4009,-11.8865 6.2083,-2.96949 14.63232,-1.89664 16.08143,1.133 z"
       style="opacity:0.274;fill:#ecc290;fill-opacity:1;fill-rule:nonzero;stroke:none;stroke-width:1.46394;stroke-linecap:round;stroke-linejoin:round;stroke-miterlimit:4;stroke-dasharray:none;stroke-dashoffset:0;stroke-opacity:1;paint-order:normal" />
    <path
       style="opacity:0.274;fill:#ecc290;fill-opacity:1;fill-rule:nonzero;stroke:none;stroke-width:1.46394;stroke-linecap:round;stroke-linejoin:round;stroke-miterlimit:4;stroke-dasharray:none;stroke-dashoffset:0;stroke-opacity:1;paint-order:normal"
       d="m 72.86583,92.19956 c 1.44914,3.02968 -3.00283,10.26122 -9.21115,13.23071 -6.20836,2.96951 -11.37402,1.48924 -13.27118,-2.47721 -1.89717,-3.96643 0.19256,-8.917 6.4009,-11.8865 6.20831,-2.96949 14.63233,-1.89664 16.08143,1.133 z"
       id="path886" />
    <path
       id="path888"
       d="M 57.86947,64.70929 C 59.31861,67.73897 54.86664,74.9705 48.65831,77.94 42.44996,80.90951 37.2843,79.42924 35.38714,75.46278 c -1.89718,-3.96642 0.19256,-8.91699 6.4009,-11.88649 6.2083,-2.96949 14.63232,-1.89664 16.08143,1.133 z"
       style="opacity:0.274;fill:#ecc290;fill-opacity:1;fill-rule:nonzero;stroke:none;stroke-width:1.46394;stroke-linecap:round;stroke-linejoin:round;stroke-miterlimit:4;stroke-dasharray:none;stroke-dashoffset:0;stroke-opacity:1;paint-order:normal" />
    <path
       style="opacity:0.274;fill:#ecc290;fill-opacity:1;fill-rule:nonzero;stroke:none;stroke-width:1.46394;stroke-linecap:round;stroke-linejoin:round;stroke-miterlimit:4;stroke-dasharray:none;stroke-dashoffset:0;stroke-opacity:1;paint-order:normal"
       d="m 45.38016,41.98838 c 0.61889,3.30091 -5.54728,9.13987 -12.31137,10.40803 -6.76413,1.26818 -11.37339,-1.49408 -12.18358,-5.8156 -0.81021,-4.32151 2.48544,-8.56579 9.24953,-9.83395 6.76408,-1.26816 14.62657,1.94068 15.24542,5.24152 z"
       id="path890" />
    <path
       id="path892"
       d="m 31.51281,27.36304 c -0.55733,2.33371 -6.28023,4.34771 -11.06237,3.20563 -4.78216,-1.14209 -6.98498,-4.28624 -6.25529,-7.34149 0.72968,-3.05527 4.11553,-4.86465 8.89766,-3.72257 4.78214,1.14209 8.97734,5.52479 8.42,7.85843 z"
       style="opacity:0.274;fill:#ecc290;fill-opacity:1;fill-rule:nonzero;stroke:none;stroke-width:1.04588;stroke-linecap:round;stroke-linejoin:round;stroke-miterlimit:4;stroke-dasharray:none;stroke-dashoffset:0;stroke-opacity:1;paint-order:normal" />
    <path
       style="fill:#cc905e;fill-opacity:1;fill-rule:nonzero;stroke:none;stroke-width:1;stroke-linecap:round;stroke-linejoin:round;stroke-miterlimit:4;stroke-dasharray:none;stroke-dashoffset:0;stroke-opacity:1;paint-order:normal"
       d="m 780.41239,74.37428 c 0.31704,4.06697 -9.06739,9.07277 -24.71116,14.70452 -31.28081,11.2611 -57.84711,30.72784 -57.84711,30.72784 -9.80018,-3.34042 -21.67829,-6.57499 -29.73927,-15.71273 0,0 40.63181,-20.7829 112.29754,-29.71963 z"
       id="path847" />
    <g
       id="g374"
       transform="rotate(45,486.75309,211.12045)">
      <path
         style="fill:#8b4a34;fill-opacity:1;fill-rule:nonzero;stroke:none;stroke-width:1.9724;stroke-linecap:round;stroke-linejoin:round;stroke-miterlimit:4;stroke-dasharray:none;stroke-dashoffset:0;stroke-opacity:1;paint-order:normal"
         d="m 562.41001,197.18047 c 14.06672,52.4977 -40.30532,124.59071 -112.18958,140.85549 -117.48564,26.58272 -324.53861,5.79873 -324.53861,5.79873 0,0 128.58576,-169.327 282.35713,-207.17079 71.56596,-17.6127 140.30434,8.01887 154.37106,60.51657 z"
         id="path829" />
      <path
         style="fill:#a66441;fill-opacity:1;fill-rule:nonzero;stroke:none;stroke-width:1.60444;stroke-linecap:round;stroke-linejoin:round;stroke-miterlimit:4;stroke-dasharray:none;stroke-dashoffset:0;stroke-opacity:1;paint-order:normal"
         d="m 435.735,262.1851 c 3.22522,1.77364 3.87643,11.05791 0.24193,17.6669 -3.63453,6.60903 -9.18121,8.58847 -13.4036,6.26639 -4.22243,-2.32204 -5.52161,-8.06624 -1.8871,-14.67524 3.63448,-6.60899 11.82361,-11.03168 15.04877,-9.25805 z"
         id="path896" />
      <path
         style="fill:#a66441;fill-opacity:1;fill-rule:nonzero;stroke:none;stroke-width:2.46153;stroke-linecap:round;stroke-linejoin:round;stroke-miterlimit:4;stroke-dasharray:none;stroke-dashoffset:0;stroke-opacity:1;paint-order:normal"
         d="m 406.86304,293.36167 c 4.9481,2.7211 5.9472,16.96498 0.37117,27.10446 -5.57607,10.13953 -14.08576,13.17637 -20.56374,9.61385 -6.47802,-3.56245 -8.47123,-12.37517 -2.89516,-22.51467 5.57599,-10.13946 18.1397,-16.92473 23.08773,-14.20364 z"
         id="path898" />
      <path
         id="path900"
         d="m 389.72776,266.60888 c 3.22522,1.77363 3.87643,11.0579 0.24193,17.6669 -3.63452,6.60902 -9.18121,8.58846 -13.4036,6.26638 -4.22243,-2.32204 -5.52161,-8.06624 -1.8871,-14.67524 3.63448,-6.60899 11.82361,-11.03167 15.04877,-9.25804 z"
         style="fill:#a66441;fill-opacity:1;fill-rule:nonzero;stroke:none;stroke-width:1.60444;stroke-linecap:round;stroke-linejoin:round;stroke-miterlimit:4;stroke-dasharray:none;stroke-dashoffset:0;stroke-opacity:1;paint-order:normal" />
      <path
         id="path902"
         d="m 359.08628,297.78544 c 4.94811,2.72111 5.94721,16.96498 0.37118,27.10447 -5.57607,10.13952 -14.08576,13.17637 -20.56374,9.61385 -6.47802,-3.56246 -8.47123,-12.37518 -2.89516,-22.51467 5.57599,-10.13947 18.1397,-16.92473 23.08772,-14.20365 z"
         style="fill:#a66441;fill-opacity:1;fill-rule:nonzero;stroke:none;stroke-width:2.46153;stroke-linecap:round;stroke-linejoin:round;stroke-miterlimit:4;stroke-dasharray:none;stroke-dashoffset:0;stroke-opacity:1;paint-order:normal" />
      <path
         style="fill:#a66441;fill-opacity:1;fill-rule:nonzero;stroke:none;stroke-width:1.60444;stroke-linecap:round;stroke-linejoin:round;stroke-miterlimit:4;stroke-dasharray:none;stroke-dashoffset:0;stroke-opacity:1;paint-order:normal"
         d="m 338.1973,271.65827 c 3.22522,1.77363 3.87644,11.0579 0.24194,17.66689 -3.63453,6.60903 -9.18121,8.58847 -13.40361,6.26639 -4.22243,-2.32204 -5.5216,-8.06624 -1.88709,-14.67524 3.63448,-6.60899 11.82361,-11.03168 15.04876,-9.25804 z"
         id="path904" />
      <path
         style="fill:#a66441;fill-opacity:1;fill-rule:nonzero;stroke:none;stroke-width:2.46153;stroke-linecap:round;stroke-linejoin:round;stroke-miterlimit:4;stroke-dasharray:none;stroke-dashoffset:0;stroke-opacity:1;paint-order:normal"
         d="m 309.95097,300.80618 c 4.9481,2.72111 5.9472,16.96499 0.37117,27.10447 -5.57606,10.13952 -14.08576,13.17637 -20.56374,9.61385 -6.47802,-3.56246 -8.47122,-12.37518 -2.89516,-22.51467 5.57599,-10.13947 18.1397,-16.92473 23.08773,-14.20365 z"
         id="path906" />
      <path
         id="path908"
         d="m 286.55953,273.42777 c 3.22522,1.77364 3.87643,11.05791 0.24194,17.6669 -3.63453,6.60903 -9.18121,8.58847 -13.40361,6.26639 -4.22243,-2.32204 -5.52161,-8.06624 -1.8871,-14.67524 3.63448,-6.60899 11.82362,-11.03168 15.04877,-9.25805 z"
         style="fill:#a66441;fill-opacity:1;fill-rule:nonzero;stroke:none;stroke-width:1.60444;stroke-linecap:round;stroke-linejoin:round;stroke-miterlimit:4;stroke-dasharray:none;stroke-dashoffset:0;stroke-opacity:1;paint-order:normal" />
      <path
         id="path910"
         d="m 262.11471,303.12977 c 4.37264,3.57327 2.77222,17.76217 -4.55004,26.72241 -7.32228,8.96027 -16.24158,10.40364 -21.96615,5.72548 -5.72461,-4.67809 -6.0867,-13.70615 1.23559,-22.6664 7.3222,-8.96022 20.90805,-13.35473 25.2806,-9.78149 z"
         style="fill:#a66441;fill-opacity:1;fill-rule:nonzero;stroke:none;stroke-width:2.46153;stroke-linecap:round;stroke-linejoin:round;stroke-miterlimit:4;stroke-dasharray:none;stroke-dashoffset:0;stroke-opacity:1;paint-order:normal" />
      <path
         style="fill:#a66441;fill-opacity:1;fill-rule:nonzero;stroke:none;stroke-width:1.60444;stroke-linecap:round;stroke-linejoin:round;stroke-miterlimit:4;stroke-dasharray:none;stroke-dashoffset:0;stroke-opacity:1;paint-order:normal"
         d="m 236.75412,275.30462 c 3.22522,1.77363 3.87643,11.05791 0.24193,17.6669 -3.63453,6.60903 -9.18121,8.58847 -13.40361,6.26639 -4.22242,-2.32204 -5.5216,-8.06624 -1.88709,-14.67525 3.63448,-6.60899 11.82361,-11.03167 15.04877,-9.25804 z"
         id="path912" />
      <path
         style="fill:#a66441;fill-opacity:1;fill-rule:nonzero;stroke:none;stroke-width:2.46153;stroke-linecap:round;stroke-linejoin:round;stroke-miterlimit:4;stroke-dasharray:none;stroke-dashoffset:0;stroke-opacity:1;paint-order:normal"
         d="m 211.90954,304.40854 c 4.2742,3.69045 2.28988,17.83077 -5.27249,26.5893 -7.5624,8.75856 -16.51755,9.95971 -22.11324,5.12815 -5.59575,-4.83151 -5.71305,-13.86606 1.84934,-22.6246 7.56233,-8.75852 21.26227,-12.78326 25.53639,-9.09285 z"
         id="path914" />
      <path
         style="fill:#a66441;fill-opacity:1;fill-rule:nonzero;stroke:none;stroke-width:2.46153;stroke-linecap:round;stroke-linejoin:round;stroke-miterlimit:4;stroke-dasharray:none;stroke-dashoffset:0;stroke-opacity:1;paint-order:normal"
         d="m 452.87027,288.9379 c 4.94811,2.7211 5.94721,16.96498 0.37118,27.10446 -5.57607,10.13953 -14.08576,13.17637 -20.56374,9.61385 -6.47802,-3.56245 -8.47123,-12.37517 -2.89516,-22.51467 5.57599,-10.13946 18.1397,-16.92473 23.08772,-14.20364 z"
         id="path856" />
    </g>
  </g>
</svg>
